<svg width="1227" height="1227" viewBox="0 0 1227 1227" fill="none" xmlns="http://www.w3.org/2000/svg">
<path d="M809.937 464.511C805.187 446.454 789.918 428.397 762.433 408.296C740.378 392.283 716.966 383.084 698.304 383.084C694.571 383.084 691.178 383.425 687.784 384.106C679.302 385.81 671.837 391.942 667.087 401.141C661.318 412.043 659.962 426.694 663.694 435.552C665.051 438.277 666.747 441.684 668.784 444.751C650.8 455.653 640.621 458.719 639.263 459.06C686.088 474.732 725.109 507.44 749.54 550.027L749.879 545.939C750.897 534.355 754.29 521.749 759.04 508.462C763.791 509.825 768.541 510.506 773.291 510.506C785.846 510.506 796.704 505.395 803.49 496.197C810.276 486.998 812.991 475.073 809.937 464.511Z" fill="#5E12A0"/>
<path d="M761.076 498.583C791.954 507.101 804.507 483.252 800.436 467.239C796.365 451.226 781.774 434.872 756.664 416.474C731.556 398.076 706.107 390.581 689.821 393.988C673.533 397.395 668.784 422.266 672.855 431.806C674.551 435.553 678.284 441.005 683.373 447.137C676.926 451.566 670.819 454.973 665.729 458.04C696.946 472.008 724.091 493.813 744.449 521.069C746.825 511.87 750.218 503.694 753.272 496.539C755.647 497.22 758.361 497.902 761.076 498.583Z" fill="url(#paint0_radial_717_168)"/>
<path d="M584.295 832.81C689.049 832.81 773.97 747.541 773.97 642.358C773.97 537.174 689.049 451.906 584.295 451.906C479.54 451.906 394.62 537.174 394.62 642.358C394.62 747.541 479.54 832.81 584.295 832.81Z" fill="url(#paint1_radial_717_168)"/>
<path opacity="0.6" d="M784.828 451.906C759.04 424.65 737.325 417.495 711.197 411.703C690.839 406.933 696.268 395.35 721.037 397.734C709.161 393.646 697.964 392.624 689.821 394.327C673.534 397.734 668.783 422.606 672.855 432.145C674.551 435.893 678.284 441.344 683.374 447.477C674.213 453.609 666.409 458.039 659.961 461.446C663.015 462.808 666.747 464.512 671.158 466.897C682.695 473.029 695.25 483.25 695.25 483.25C676.249 466.897 680.32 459.401 706.447 441.003C714.59 435.212 729.52 435.893 743.432 443.048C757.344 450.202 773.631 468.26 773.631 468.26L758.022 498.241C759.04 498.582 760.058 498.923 761.076 499.263C770.916 501.989 778.72 501.307 784.828 498.923C791.954 494.493 810.616 479.162 784.828 451.906Z" fill="#A98698"/>
<path d="M710.858 428.057C717.645 430.783 726.467 435.552 737.325 442.707C750.219 451.225 761.416 460.764 768.542 468.26C756.666 483.932 748.861 505.396 744.112 520.387C746.486 523.794 749.201 527.201 751.576 530.608C753.952 522.09 758.023 509.484 763.452 496.879C764.809 497.219 766.505 497.219 768.203 497.219C772.274 497.219 777.025 496.538 780.757 493.472C783.471 491.427 786.525 487.68 786.186 480.866C786.186 474.392 781.096 466.216 770.578 456.335C763.112 449.18 752.934 441.344 742.754 434.19C713.573 414.77 693.214 409.319 684.053 418.517C677.945 424.65 678.625 432.145 680.66 437.597C669.802 444.751 660.641 449.862 654.533 453.269C658.605 454.632 662.337 456.335 666.409 458.039C677.267 451.906 692.875 442.026 710.858 428.057ZM774.989 476.437C776.007 478.14 776.346 479.843 776.346 480.866C776.346 483.932 775.327 484.954 774.649 485.635C773.292 486.657 770.578 487.339 768.203 487.339C770.238 483.591 772.614 479.844 774.989 476.437ZM691.178 425.672C692.196 424.65 694.911 423.969 699.322 424.65C695.929 427.376 692.536 429.761 689.143 432.145C688.803 429.761 689.143 427.716 691.178 425.672Z" fill="#5E12A0"/>
<path d="M584.295 440.664C473.34 440.664 383.422 530.95 383.422 642.359C383.422 753.768 473.34 844.054 584.295 844.054C695.251 844.054 785.168 753.768 785.168 642.359C784.829 530.95 694.911 440.664 584.295 440.664ZM584.295 832.47C479.448 832.47 394.62 747.295 394.62 642.018C394.62 536.742 479.448 451.566 584.295 451.566C689.143 451.566 773.971 536.742 773.971 642.018C773.631 747.295 688.803 832.47 584.295 832.47Z" fill="#5E12A0"/>
<path opacity="0.6" d="M584.295 832.81C689.049 832.81 773.97 747.541 773.97 642.358C773.97 537.174 689.049 451.906 584.295 451.906C479.54 451.906 394.62 537.174 394.62 642.358C394.62 747.541 479.54 832.81 584.295 832.81Z" fill="url(#paint2_linear_717_168)"/>
<path opacity="0.6" d="M582.938 809.301C479.447 792.607 409.21 694.826 426.175 590.912C433.64 544.918 456.713 505.737 489.287 477.459C441.784 505.056 406.496 553.094 396.994 611.695C380.368 715.609 450.606 813.39 553.757 830.084C611.44 839.624 667.087 821.567 708.143 786.134C671.837 807.598 627.726 816.797 582.938 809.301Z" fill="#A98698"/>
<path opacity="0.6" d="M614.494 454.291C566.651 446.455 520.165 457.358 482.162 481.547C481.483 482.229 480.805 482.91 480.805 482.91C495.395 474.052 516.772 466.216 516.772 466.216C461.803 498.242 444.837 534.697 444.837 534.697C466.214 493.131 528.988 463.831 578.187 461.787C627.388 459.742 659.622 474.392 698.982 506.078C738.342 538.103 762.095 603.518 759.719 655.304C757.684 707.091 730.538 748.997 730.538 748.997C749.2 724.807 760.397 707.091 767.523 689.034C768.881 683.583 770.237 678.131 770.917 672.339C787.881 568.766 717.983 471.326 614.494 454.291Z" fill="url(#paint3_linear_717_168)"/>
<path d="M764.469 640.314C764.469 740.14 683.714 821.226 584.295 821.226C484.877 821.226 403.781 740.14 403.781 640.314H764.469Z" fill="url(#paint4_linear_717_168)"/>
<g opacity="0.6">
<path opacity="0.6" d="M750.219 640.314C750.219 737.755 673.534 817.479 577.169 821.226C579.544 821.226 581.92 821.226 584.295 821.226C683.714 821.226 764.47 740.14 764.47 640.314H750.219Z" fill="url(#paint5_linear_717_168)"/>
</g>
<g opacity="0.7">
<path d="M429.23 640.314H403.781C403.781 740.14 484.537 821.226 583.956 821.226C588.367 821.226 592.438 821.226 596.51 820.886C503.199 814.412 429.23 736.051 429.23 640.314Z" fill="url(#paint6_linear_717_168)"/>
</g>
<path d="M764.13 642.358C764.13 621.575 728.163 609.651 680.32 605.562C645.71 602.837 610.761 606.244 570.722 618.509C536.113 628.73 504.896 627.026 482.162 624.301C431.605 618.509 403.781 617.827 403.781 642.358C403.781 677.791 475.715 722.082 583.616 706.75C638.246 698.914 666.408 682.901 698.643 671.999C733.592 660.074 764.13 660.756 764.13 642.358Z" fill="url(#paint7_linear_717_168)"/>
<path d="M643.334 556.16C660.201 556.16 673.873 542.432 673.873 525.497C673.873 508.562 660.201 494.834 643.334 494.834C626.469 494.834 612.797 508.562 612.797 525.497C612.797 542.432 626.469 556.16 643.334 556.16Z" fill="white"/>
<path d="M693.214 578.987C700.335 578.987 706.108 573.191 706.108 566.041C706.108 558.89 700.335 553.094 693.214 553.094C686.093 553.094 680.32 558.89 680.32 566.041C680.32 573.191 686.093 578.987 693.214 578.987Z" fill="white"/>
<g opacity="0.6">
<path d="M739.36 501.307C739.021 501.307 738.682 501.307 738.682 501.307C736.645 500.966 735.289 498.922 735.627 496.537C738.682 480.865 751.575 465.874 752.254 465.193C753.611 463.489 756.326 463.489 757.684 464.852C759.38 466.215 759.38 468.941 758.022 470.303C757.684 470.644 745.807 484.613 743.093 498.241C742.753 499.944 741.056 501.307 739.36 501.307Z" fill="url(#paint8_linear_717_168)"/>
</g>
<path d="M698.303 383.426C717.305 383.426 740.717 392.625 762.434 408.637C789.918 428.739 805.187 446.455 809.937 464.853C812.651 475.415 810.277 487.339 803.491 496.197C796.365 505.396 785.845 510.507 773.292 510.507C768.881 510.507 764.13 509.825 759.041 508.463C755.986 516.299 753.612 524.135 751.915 531.63C772.612 563.315 784.828 601.474 784.828 642.358C784.828 753.767 694.91 844.053 583.955 844.053C473 844.053 383.422 753.767 383.422 642.358C383.422 530.949 473.34 440.663 584.295 440.663C608.725 440.663 632.138 445.092 653.853 453.269C657.926 451.225 663.015 448.499 668.783 445.092C666.748 442.026 664.712 438.96 663.694 435.894C659.961 426.695 661.319 412.385 667.086 401.483C671.837 392.625 678.963 386.492 687.785 384.448C690.839 383.766 694.571 383.426 698.303 383.426ZM698.303 377.293C694.232 377.293 690.16 377.634 686.428 378.656C676.248 381.041 667.426 387.855 661.658 398.757C655.211 411.363 653.515 427.717 657.926 438.278C658.604 439.641 659.283 441.345 660.301 443.048C657.926 444.411 655.55 445.774 653.175 446.796C630.78 438.96 607.707 434.871 583.955 434.871C556.132 434.871 528.987 440.323 503.539 451.225C478.769 461.787 456.714 476.777 437.712 495.857C418.711 514.936 403.781 537.082 393.262 561.953C382.404 587.505 376.976 614.761 376.976 642.699C376.976 670.636 382.404 697.892 393.262 723.445C403.781 748.316 418.711 770.461 437.712 789.541C456.714 808.62 478.769 823.611 503.539 834.172C528.987 845.075 556.132 850.526 583.955 850.526C611.779 850.526 638.924 845.075 664.372 834.172C689.143 823.611 711.198 808.62 730.199 789.541C749.201 770.461 764.13 748.316 774.649 723.445C785.507 697.892 790.936 670.636 790.936 642.699C790.936 602.837 779.738 564.338 758.361 530.949C759.379 525.838 761.076 520.728 762.772 515.617C766.166 516.299 769.898 516.639 773.292 516.639C787.543 516.639 800.097 510.848 808.24 499.945C816.044 489.724 819.099 475.415 815.706 463.49C810.276 443.73 794.669 424.991 765.827 404.208C743.093 386.833 718.323 377.293 698.303 377.293Z" fill="white"/>
<path opacity="0.2" d="M571.741 784.089C576.987 784.089 581.241 779.818 581.241 774.549C581.241 769.281 576.987 765.01 571.741 765.01C566.493 765.01 562.239 769.281 562.239 774.549C562.239 779.818 566.493 784.089 571.741 784.089Z" fill="white"/>
<g opacity="0.4">
<path opacity="0.6" d="M566.311 781.023C562.579 777.275 562.579 771.143 566.311 767.395C566.99 766.714 567.669 766.373 568.347 765.691C566.99 766.032 565.972 766.713 564.954 767.736C561.221 771.483 561.221 777.616 564.954 781.364C568.007 784.43 572.758 785.111 576.491 783.067C573.098 784.43 569.025 783.749 566.311 781.023Z" fill="url(#paint9_linear_717_168)"/>
</g>
<path opacity="0.3" d="M575.133 771.823C576.258 771.823 577.169 770.908 577.169 769.779C577.169 768.65 576.258 767.734 575.133 767.734C574.009 767.734 573.098 768.65 573.098 769.779C573.098 770.908 574.009 771.823 575.133 771.823Z" fill="white"/>
<path opacity="0.2" d="M621.28 779.319C626.527 779.319 630.78 775.048 630.78 769.78C630.78 764.511 626.527 760.24 621.28 760.24C616.033 760.24 611.779 764.511 611.779 769.78C611.779 775.048 616.033 779.319 621.28 779.319Z" fill="white"/>
<g opacity="0.4">
<path opacity="0.6" d="M615.851 775.912C612.118 772.164 612.118 766.031 615.851 762.284C616.529 761.602 617.209 761.261 617.887 760.58C616.529 760.921 615.512 761.602 614.494 762.624C610.762 766.372 610.762 772.505 614.494 776.252C617.547 779.319 622.298 780 626.031 777.956C622.637 779.659 618.566 778.978 615.851 775.912Z" fill="url(#paint10_linear_717_168)"/>
</g>
<path opacity="0.3" d="M624.673 767.053C625.798 767.053 626.709 766.138 626.709 765.009C626.709 763.88 625.798 762.965 624.673 762.965C623.549 762.965 622.638 763.88 622.638 765.009C622.638 766.138 623.549 767.053 624.673 767.053Z" fill="white"/>
<path opacity="0.2" d="M596.85 801.466C600.785 801.466 603.975 798.263 603.975 794.311C603.975 790.36 600.785 787.156 596.85 787.156C592.914 787.156 589.724 790.36 589.724 794.311C589.724 798.263 592.914 801.466 596.85 801.466Z" fill="white"/>
<g opacity="0.4">
<path opacity="0.6" d="M592.777 799.081C590.063 796.355 590.063 791.586 592.777 788.86C593.117 788.519 593.795 788.179 594.135 787.838C593.117 788.179 592.439 788.86 591.76 789.541C589.046 792.267 589.046 797.037 591.76 799.762C594.135 802.147 597.528 802.488 600.582 800.784C597.868 801.466 594.813 801.125 592.777 799.081Z" fill="url(#paint11_linear_717_168)"/>
</g>
<path opacity="0.3" d="M599.225 791.927C599.974 791.927 600.582 791.317 600.582 790.564C600.582 789.811 599.974 789.201 599.225 789.201C598.475 789.201 597.868 789.811 597.868 790.564C597.868 791.317 598.475 791.927 599.225 791.927Z" fill="white"/>
<path opacity="0.2" d="M640.622 796.354C644.557 796.354 647.746 793.151 647.746 789.2C647.746 785.248 644.557 782.045 640.622 782.045C636.686 782.045 633.496 785.248 633.496 789.2C633.496 793.151 636.686 796.354 640.622 796.354Z" fill="white"/>
<g opacity="0.4">
<path opacity="0.6" d="M636.549 793.97C633.835 791.244 633.835 786.474 636.549 783.749C636.889 783.408 637.567 783.067 637.906 782.727C636.889 783.067 636.21 783.749 635.531 784.43C632.817 787.156 632.817 791.925 635.531 794.651C637.906 797.036 641.3 797.377 644.353 795.673C641.639 796.355 638.586 796.014 636.549 793.97Z" fill="url(#paint12_linear_717_168)"/>
</g>
<path opacity="0.3" d="M642.997 786.815C643.746 786.815 644.353 786.205 644.353 785.453C644.353 784.7 643.746 784.09 642.997 784.09C642.247 784.09 641.639 784.7 641.639 785.453C641.639 786.205 642.247 786.815 642.997 786.815Z" fill="white"/>
<path opacity="0.2" d="M531.362 780.682C539.983 780.682 546.97 773.666 546.97 765.01C546.97 756.355 539.983 749.338 531.362 749.338C522.742 749.338 515.753 756.355 515.753 765.01C515.753 773.666 522.742 780.682 531.362 780.682Z" fill="white"/>
<g opacity="0.4">
<path opacity="0.6" d="M522.54 775.232C516.432 769.099 516.432 759.219 522.54 753.086C523.557 752.064 524.575 751.383 525.933 750.701C523.897 751.383 522.2 752.745 520.504 754.108C514.396 760.241 514.396 770.121 520.504 776.254C525.593 781.364 533.397 782.386 539.505 778.639C533.737 781.024 526.951 779.661 522.54 775.232Z" fill="url(#paint13_linear_717_168)"/>
</g>
<path opacity="0.3" d="M536.791 760.582C538.665 760.582 540.184 759.056 540.184 757.175C540.184 755.293 538.665 753.768 536.791 753.768C534.917 753.768 533.397 755.293 533.397 757.175C533.397 759.056 534.917 760.582 536.791 760.582Z" fill="white"/>
<path opacity="0.2" d="M670.82 742.184C679.44 742.184 686.429 735.168 686.429 726.512C686.429 717.856 679.44 710.84 670.82 710.84C662.199 710.84 655.212 717.856 655.212 726.512C655.212 735.168 662.199 742.184 670.82 742.184Z" fill="white"/>
<g opacity="0.4">
<path opacity="0.6" d="M661.658 736.734C655.55 730.601 655.55 720.721 661.658 714.588C662.676 713.566 663.694 712.885 665.051 712.203C663.015 712.885 661.319 714.247 659.622 715.61C653.515 721.743 653.515 731.623 659.622 737.756C664.712 742.866 672.516 743.888 678.623 740.141C672.855 742.526 666.408 741.163 661.658 736.734Z" fill="url(#paint14_linear_717_168)"/>
</g>
<path opacity="0.3" d="M676.25 722.083C678.123 722.083 679.643 720.558 679.643 718.677C679.643 716.795 678.123 715.27 676.25 715.27C674.375 715.27 672.856 716.795 672.856 718.677C672.856 720.558 674.375 722.083 676.25 722.083Z" fill="white"/>
<defs>
<radialGradient id="paint0_radial_717_168" cx="0" cy="0" r="1" gradientUnits="userSpaceOnUse" gradientTransform="translate(794.247 445.956) scale(151.653 152.274)">
<stop stop-color="#FFEAFF" stop-opacity="0.6"/>
<stop offset="0.6807" stop-color="#A087C9"/>
<stop offset="1" stop-color="#10002F"/>
</radialGradient>
<radialGradient id="paint1_radial_717_168" cx="0" cy="0" r="1" gradientUnits="userSpaceOnUse" gradientTransform="translate(709.875 510.898) scale(371.041 372.56)">
<stop stop-color="#FFEAFF" stop-opacity="0.6"/>
<stop offset="0.6807" stop-color="#A087C9"/>
<stop offset="1" stop-color="#10002F"/>
</radialGradient>
<linearGradient id="paint2_linear_717_168" x1="553.909" y1="829.928" x2="615.061" y2="454.192" gradientUnits="userSpaceOnUse">
<stop stop-color="#81FFFF"/>
<stop offset="0.6202" stop-color="white" stop-opacity="0"/>
</linearGradient>
<linearGradient id="paint3_linear_717_168" x1="717.967" y1="512.857" x2="560.538" y2="656.714" gradientUnits="userSpaceOnUse">
<stop offset="0.2888" stop-color="white"/>
<stop offset="0.7796" stop-color="white" stop-opacity="0"/>
</linearGradient>
<linearGradient id="paint4_linear_717_168" x1="403.934" y1="730.846" x2="764.382" y2="730.846" gradientUnits="userSpaceOnUse">
<stop stop-color="#0002E9"/>
<stop offset="0.9952" stop-color="#FF00C7"/>
</linearGradient>
<linearGradient id="paint5_linear_717_168" x1="781.445" y1="656.371" x2="584.498" y2="841.738" gradientUnits="userSpaceOnUse">
<stop offset="0.2888" stop-color="white"/>
<stop offset="0.7796" stop-color="white" stop-opacity="0"/>
</linearGradient>
<linearGradient id="paint6_linear_717_168" x1="403.934" y1="730.846" x2="596.772" y2="730.846" gradientUnits="userSpaceOnUse">
<stop stop-color="#000292"/>
<stop offset="0.9952" stop-color="#7D00C7"/>
</linearGradient>
<linearGradient id="paint7_linear_717_168" x1="404.176" y1="657.229" x2="764.14" y2="657.229" gradientUnits="userSpaceOnUse">
<stop stop-color="#000292"/>
<stop offset="0.9952" stop-color="#BE00C7"/>
</linearGradient>
<linearGradient id="paint8_linear_717_168" x1="758.233" y1="463.375" x2="732.209" y2="505.493" gradientUnits="userSpaceOnUse">
<stop offset="0.2888" stop-color="white"/>
<stop offset="0.7796" stop-color="white" stop-opacity="0"/>
</linearGradient>
<linearGradient id="paint9_linear_717_168" x1="562.145" y1="775.023" x2="576.501" y2="775.023" gradientUnits="userSpaceOnUse">
<stop offset="0.2888" stop-color="white"/>
<stop offset="0.7796" stop-color="white" stop-opacity="0"/>
</linearGradient>
<linearGradient id="paint10_linear_717_168" x1="611.65" y1="770.188" x2="626.007" y2="770.188" gradientUnits="userSpaceOnUse">
<stop offset="0.2888" stop-color="white"/>
<stop offset="0.7796" stop-color="white" stop-opacity="0"/>
</linearGradient>
<linearGradient id="paint11_linear_717_168" x1="589.679" y1="794.574" x2="600.457" y2="794.574" gradientUnits="userSpaceOnUse">
<stop offset="0.2888" stop-color="white"/>
<stop offset="0.7796" stop-color="white" stop-opacity="0"/>
</linearGradient>
<linearGradient id="paint12_linear_717_168" x1="633.304" y1="789.45" x2="644.082" y2="789.45" gradientUnits="userSpaceOnUse">
<stop offset="0.2888" stop-color="white"/>
<stop offset="0.7796" stop-color="white" stop-opacity="0"/>
</linearGradient>
<linearGradient id="paint13_linear_717_168" x1="515.767" y1="765.592" x2="539.212" y2="765.592" gradientUnits="userSpaceOnUse">
<stop offset="0.2888" stop-color="white"/>
<stop offset="0.7796" stop-color="white" stop-opacity="0"/>
</linearGradient>
<linearGradient id="paint14_linear_717_168" x1="655.016" y1="727.082" x2="678.46" y2="727.082" gradientUnits="userSpaceOnUse">
<stop offset="0.2888" stop-color="white"/>
<stop offset="0.7796" stop-color="white" stop-opacity="0"/>
</linearGradient>
</defs>
</svg>
