<svg width="1920" height="1080" viewBox="0 0 1920 1080" fill="none" xmlns="http://www.w3.org/2000/svg">
<g clip-path="url(#clip0_1103_1284)">
<path d="M147.513 20.1016H0V1061.11H147.513V20.1016Z" fill="black"/>
<path d="M696.663 681.358H620.71C463.811 681.358 336.189 561.716 336.189 414.627V19.7788H772.702C929.602 19.7788 1057.22 139.42 1057.22 286.509V389.762H909.709V286.509C909.709 215.709 848.224 158.069 772.702 158.069H483.703V414.627C483.703 485.427 545.188 543.068 620.71 543.068H696.663V681.358ZM1071.95 793.491V669.248C1071.95 522.159 944.327 402.518 787.427 402.518H696.663V540.807H787.427C862.949 540.807 924.435 598.448 924.435 669.248V793.491C924.435 864.291 862.949 921.932 787.427 921.932H483.703V690.399H336.189V1060.22H787.427C944.327 1060.22 1071.95 940.58 1071.95 793.491Z" fill="black"/>
<path d="M1574.34 1080H1549.8C1359.22 1080 1204.13 934.606 1204.13 755.952V323.968C1204.13 145.313 1359.22 -0.0805664 1549.8 -0.0805664H1574.34C1764.91 -0.0805664 1920 145.313 1920 323.968H1772.49C1772.49 221.603 1683.62 138.29 1574.42 138.29H1549.88C1440.69 138.29 1351.82 221.603 1351.82 323.968V755.952C1351.82 858.317 1440.69 941.63 1549.88 941.63H1574.42C1683.62 941.63 1772.49 858.317 1772.49 755.952H1920C1920 934.606 1764.91 1080 1574.34 1080Z" fill="black"/>
<path d="M1574.34 1080H1549.8C1359.22 1080 1204.13 934.606 1204.13 755.952V323.968C1204.13 145.313 1359.22 -0.0805664 1549.8 -0.0805664H1574.34C1764.91 -0.0805664 1920 145.313 1920 323.968H1772.49C1772.49 221.603 1683.62 138.29 1574.42 138.29H1549.88C1440.69 138.29 1351.82 221.603 1351.82 323.968V755.952C1351.82 858.317 1440.69 941.63 1549.88 941.63H1574.42C1683.62 941.63 1772.49 858.317 1772.49 755.952H1920C1920 934.606 1764.91 1080 1574.34 1080Z" fill="black"/>
</g>
<defs>
<clipPath id="clip0_1103_1284">
<rect width="1920" height="1080" fill="white"/>
</clipPath>
</defs>
</svg>
