<svg width="285" height="501" viewBox="0 0 285 501" fill="none" xmlns="http://www.w3.org/2000/svg">
<path d="M227.844 290.616C262.013 270.811 284.982 233.827 284.982 191.464V142.869C284.982 64.2497 221.264 0.5 142.644 0.5C64.0251 0.5 0.275391 64.2497 0.275391 142.869V194.944H87.0572V198.33C76.5219 200.956 66.5561 205.037 57.4128 210.384C23.2443 230.189 0.275391 267.173 0.275391 309.536V358.131C0.275391 436.75 63.9934 500.5 142.613 500.5C221.232 500.5 284.982 436.75 284.982 358.131V306.056H198.2V302.67C208.735 300.044 218.701 295.963 227.844 290.616ZM170.422 375.5C170.422 390.844 157.989 403.278 142.644 403.278C127.3 403.278 114.867 390.844 114.867 375.5V125.5C114.867 110.156 127.3 97.7222 142.644 97.7222C157.989 97.7222 170.422 110.156 170.422 125.5V375.5Z" fill="#0A0A0A"/>
</svg>
