<svg width="190" height="200" viewBox="0 0 190 200" fill="none" xmlns="http://www.w3.org/2000/svg">
<path fill-rule="evenodd" clip-rule="evenodd" d="M189.083 156.34V107.597C189.071 102.873 185.271 99.0478 180.584 99.0478C178.241 99.0478 176.119 99.7707 174.581 101.261C147.867 130.953 86.9073 152.577 14.1308 155.896C3.44846 156.383 -4.56704 165.986 2.93792 173.668C18.0957 189.184 52.1893 200 91.8184 200C145.536 200 189.083 180.855 189.083 156.34Z" fill="#0F0F0F"/>
<path fill-rule="evenodd" clip-rule="evenodd" d="M164.311 82.1588V46.2908C164.302 42.815 161.493 40.0001 158.03 40.0001C156.297 40.0001 154.729 40.532 153.592 41.6285C133.847 63.4779 88.7891 79.3898 34.997 81.8321C27.1012 82.1906 21.1766 89.2568 26.7238 94.9099C37.9275 106.327 63.1275 114.286 92.419 114.286C132.124 114.286 164.311 100.198 164.311 82.1588Z" fill="#0F0F0F"/>
<path fill-rule="evenodd" clip-rule="evenodd" d="M139.759 27.0248V4.03251C139.753 1.80443 137.931 0 135.684 0C134.561 0 133.543 0.340948 132.806 1.04385C119.999 15.0499 90.7717 25.2498 55.8795 26.8154C50.7579 27.0452 46.9149 31.5748 50.5131 35.1986C57.7804 42.5174 74.1263 47.6192 93.1262 47.6192C118.881 47.6192 139.759 38.5883 139.759 27.0248Z" fill="#0F0F0F"/>
</svg>
