<svg width="480" height="541" viewBox="0 0 480 541" fill="none" xmlns="http://www.w3.org/2000/svg">
<path d="M171.725 35.9983C209.755 -2.03178 271.414 -2.03184 309.444 35.9983L406.677 133.231C498.407 224.961 498.407 373.686 406.677 465.416V465.416C314.947 557.147 166.222 557.147 74.4919 465.416V465.416C-17.2384 373.686 -17.2385 224.962 74.4919 133.231L171.725 35.9983Z" fill="black"/>
<path fill-rule="evenodd" clip-rule="evenodd" d="M260.788 105.921C249.309 95.2887 231.578 95.2887 220.098 105.921L130.827 188.601C126.398 192.702 123.313 198.046 121.975 203.932L95.008 322.583C93.9068 327.428 94.0492 332.283 95.235 336.801C95.2809 340.257 95.9336 343.778 97.2696 347.227L116.463 396.784C119.025 403.399 123.853 408.889 130.086 412.277L226.141 464.483C235.057 469.329 245.821 469.329 254.737 464.483L350.792 412.277C357.025 408.889 361.853 403.399 364.415 396.784L383.609 347.227C384.94 343.788 385.593 340.279 385.643 336.833C386.836 332.306 386.982 327.44 385.878 322.583L358.911 203.932C357.573 198.046 354.488 192.702 350.06 188.601L260.788 105.921Z" fill="white"/>
<ellipse cx="16.1166" cy="29.0658" rx="16.1166" ry="29.0658" transform="matrix(-0.73809 0.674702 0.674702 0.73809 272.617 153.674)" fill="black"/>
<ellipse cx="10.5395" cy="19.0077" rx="10.5395" ry="19.0077" transform="matrix(-0.73809 0.674702 0.674702 0.73809 314.203 206.365)" fill="black"/>
</svg>
