<?xml version="1.0" encoding="UTF-8"?>
<svg width="800" height="800" viewBox="0 0 400 400" version="1.1" xmlns="http://www.w3.org/2000/svg" xmlns:xlink="http://www.w3.org/1999/xlink">
    <title>icon</title>
    <defs>
        <path d="M0,0 L400,0 L400,400 L0,400 L0,0 Z" id="path-1"></path>
    </defs>
    <g id="icon" stroke="none" fill="none" xlink:href="#path-1" fill-rule="evenodd">
        <use fill="#FFFFFF" xlink:href="#path-1"></use>
        <g id="Group" stroke-width="1" transform="translate(94, 102.0001)" fill="#0156FC">
            <path d="M198.860154,9.38391012 C201.46792,9.38391012 203.575489,11.487755 203.575489,14.0910853 L203.575489,89.1326793 L203.575489,93.7943804 C203.63639,103.042398 203.711907,114.590869 202.089513,126.835231 C200.209712,141.108093 196.47975,152.716953 190.748591,162.328115 C172.053712,193.613228 138.469838,216.543593 106.948061,219.600732 C106.796621,219.615728 106.645181,219.631129 106.493336,219.631129 C106.341896,219.631129 106.19005,219.631129 106.038611,219.600732 C74.4863832,216.513196 40.9025095,193.597827 22.238202,162.328115 C16.4766339,152.716953 12.777081,141.093098 10.8969963,126.835231 C9.28982779,114.590869 9.36566942,103.057394 9.44147044,93.7943804 L9.44147044,89.1326793 L9.45661441,14.0910853 C9.45661441,11.487755 11.5641428,9.38391012 14.1719904,9.38391012 L198.860154,9.38391012 Z M198.860154,-7.53068657e-05 L14.1568464,-7.53068657e-05 C6.37873549,-7.53068657e-05 0.0410271736,6.32656858 0.0410271736,14.0910853 L0.0410271736,93.7489874 C-0.0499446131,102.724647 -0.140916806,115.059795 1.55722592,128.046252 C3.61925742,143.620516 7.72817239,156.395004 14.1416618,167.125995 C23.9969726,183.623521 37.7640547,198.184143 53.9721978,209.263282 C70.332146,220.433208 87.965324,227.229192 104.992337,228.909139 C105.477513,228.969528 105.97771,228.999925 106.478314,228.999925 C106.978511,228.999925 107.463686,228.969528 107.96429,228.909139 C124.975875,227.229192 142.609053,220.448204 158.969001,209.278278 C175.177104,198.199139 188.95933,183.623521 198.829703,167.125995 C205.258783,156.380008 209.367548,143.60552 211.414216,128.061248 C213.112533,115.195974 213.03661,103.329752 212.976115,93.7793845 L212.976115,89.1026875 L212.976115,14.1062028 C212.976115,6.32656858 206.638386,0.0150601853 198.860154,0.0150601853 L198.860154,-7.53068657e-05 Z" id="Shape" fill-rule="nonzero"></path>
            <path d="M185.644382,104.735014 C187.026394,105.777128 189,104.795291 189,103.073134 L188.954462,93.60066 L188.954462,26.099889 C188.969912,24.9366134 188.028241,23.9999247 186.859284,23.9999247 L25.1496242,23.9999247 C23.9804638,23.9999247 23.0390773,24.9366134 23.0390773,26.099889 L23.0390773,67.6153768 C23.0390773,69.3982165 23.4490457,71.1507152 24.2537761,72.736945 C25.0585472,74.3231747 26.2125009,75.713199 27.6550143,76.7706855 L149.294086,167.280041 C150.356922,168.065671 150.432955,169.591624 149.461196,170.498214 C147.213952,172.613187 144.845137,174.592232 142.385244,176.46569 C141.626134,177.039743 140.593386,177.039743 139.849726,176.480659 L26.3947363,91.8934707 C25.012968,90.8659207 23.0390773,91.8327886 23.0390773,93.570319 C23.0390773,108.073742 21.7484267,135.131076 34.0019023,155.858863 C47.6826441,179.018788 71.1723792,197.299064 95.3451918,203.221232 C98.8374257,204.06714 102.330066,204.671533 105.8223,204.988699 C105.958915,205.003667 106.095531,205.003667 106.217103,204.988699 C122.038886,203.568738 138.1339,196.377506 151.951176,185.515008 C155.413322,182.780673 158.738446,179.83476 161.896866,176.677269 C168.122223,170.437532 173.557975,163.457878 178.037419,155.889204 C182.091565,149.045478 184.657579,141.50674 186.282327,133.968002 C186.646635,132.336463 186.950361,130.689551 187.223592,129.027671 C187.937164,124.707107 186.1758,120.340828 182.668522,117.727453 L79.6754746,41.1017549 C78.0657699,39.8930891 78.9009135,37.3399106 80.9509593,37.3399106 L94.5860813,37.3399106 C95.0414663,37.3399106 95.4818073,37.491009 95.8615659,37.7629456 L185.659832,104.749982 L185.644382,104.735014 Z" id="Path" fill-rule="nonzero"></path>
        </g>
    </g>
</svg>