<?xml version="1.0" encoding="utf-8"?>
<!-- Generator: Adobe Illustrator 28.0.0, SVG Export Plug-In . SVG Version: 6.00 Build 0)  -->
<svg version="1.1" id="Camada_1" xmlns="http://www.w3.org/2000/svg" xmlns:xlink="http://www.w3.org/1999/xlink" x="0px" y="0px"
	 viewBox="0 0 256 256" style="enable-background:new 0 0 256 256;" xml:space="preserve">
<g>
	<path d="M88.5,153.8c-9.4-9.4-14.6-21.8-14.6-35.1c0-9.1,2.4-18,7.1-25.7c2.1-3.4,4.6-6.6,7.5-9.5l21-20.9
		c6.7-6.6,10.4-15.7,10.4-25.1V0l0,0L63.7,56c-17.4,17.3-27.1,40.6-26.8,63.9c0.3,22.7,9.3,44,25.4,60.1l76.3,76.1v-37.8
		c0-9.2-3.7-18.1-10.2-24.6L88.5,153.8z"/>
	<path d="M192.3,56.1l-56.2-56v37.5c0,9.4,3.7,18.4,10.4,25.1l20.9,20.9c9.4,9.4,14.6,21.9,14.6,35.2c0,9.2-2.5,18-7.1,25.7
		c-0.2,0.3-0.3,0.5-0.5,0.8c0,0,0,0,0,0l-62.8-62.7v38.1c0,9,3.6,17.6,10,24l53.7,53.6l15.2-15.1c0,0,0,0,0,0l3-3
		c2.7-2.7,5.2-5.5,7.4-8.3v0c0.4-0.5,0.8-1,1.2-1.6c11.3-15.3,17.1-33.5,16.8-52.7v0C218.8,94.7,209.2,73,192.3,56.1z"/>
</g>
</svg>
